<svg width="109" height="18" viewBox="0 0 109 18" fill="none" xmlns="http://www.w3.org/2000/svg"><path d="M12.464 5.288c0 .848-.2 1.648-.6 2.4-.4.752-1.04 1.368-1.92 1.848-.88.464-2.008.696-3.384.696H3.536V17H.8V.32h5.76c1.28 0 2.36.224 3.24.672.896.432 1.56 1.024 1.992 1.776.448.752.672 1.592.672 2.52zM6.56 8c1.04 0 1.816-.232 2.328-.696.512-.48.768-1.152.768-2.016 0-1.824-1.032-2.736-3.096-2.736H3.536V8H6.56zm12.45 6.792h5.64V17h-8.377V.32h2.736v14.472zm19.183-1.2H31.21L30.01 17h-2.857L33.13.296h3.167L42.275 17h-2.88l-1.2-3.408zm-.767-2.232l-2.712-7.752-2.736 7.752h5.447zM59.776 17H57.04L48.808 4.544V17h-2.736V.296h2.736l8.232 12.432V.296h2.736V17zM75.345.32v2.232h-4.44V17h-2.736V2.552h-4.464V.32h11.64zM88.508 17l-6.456-7.464V17h-2.736V.32h2.736v7.608L88.532.32h3.432l-7.248 8.352L92.084 17h-3.576zM98.415.32v10.632c0 1.264.328 2.216.984 2.856.672.64 1.6.96 2.784.96 1.2 0 2.128-.32 2.784-.96.672-.64 1.008-1.592 1.008-2.856V.32h2.736v10.584c0 1.36-.296 2.512-.888 3.456a5.511 5.511 0 01-2.376 2.112c-.992.464-2.088.696-3.288.696-1.2 0-2.296-.232-3.288-.696a5.392 5.392 0 01-2.328-2.112c-.576-.944-.864-2.096-.864-3.456V.32h2.736z" fill="#156963"/></svg>